<?xml version="1.0" encoding="UTF-8"?>
<!-- Generator: Adobe Illustrator 20.0.0, SVG Export Plug-In . SVG Version: 6.00 Build 0)  -->
<svg xmlns="http://www.w3.org/2000/svg" xmlns:xlink="http://www.w3.org/1999/xlink" xmlns:dc="http://purl.org/dc/elements/1.1/" xmlns:cc="http://creativecommons.org/ns#" xmlns:rdf="http://www.w3.org/1999/02/22-rdf-syntax-ns#" version="1.1" id="DESIGNS" x="0px" y="0px" width="32px" height="32px" viewBox="0 0 32 32" style="enable-background:new 0 0 32 32;" xml:space="preserve">
<title property="dc:title">to chart</title><desc property="dc:description">An icon for "chart" from the Open series on to [icon]. Downloaded from http://www.toicon.com/icons/open_chart by 103.238.106.20 on 2020-11-27. Licensed CC-BY, see http://toicon.com/license/ for details.</desc>
<g>
	<g>
		<path class="open_een" d="M4,30c-1.103,0-2-0.897-2-2v-1.5C2,26.224,2.224,26,2.5,26S3,26.224,3,26.5V28c0,0.552,0.448,1,1,1    s1-0.448,1-1v-5c0-0.552-0.448-1-1-1s-1,0.448-1,1v0.5C3,23.776,2.776,24,2.5,24S2,23.776,2,23.5V23c0-1.103,0.897-2,2-2    s2,0.897,2,2v5C6,29.103,5.103,30,4,30z" style="fill: #0B1719;"/>
		<path class="open_een" d="M10,30c-1.103,0-2-0.897-2-2v-5.5C8,22.224,8.224,22,8.5,22S9,22.224,9,22.5V28c0,0.552,0.448,1,1,1    s1-0.448,1-1v-9c0-0.552-0.448-1-1-1s-1,0.448-1,1v0.5C9,19.776,8.776,20,8.5,20S8,19.776,8,19.5V19c0-1.103,0.897-2,2-2    s2,0.897,2,2v9C12,29.103,11.103,30,10,30z" style="fill: #0B1719;"/>
		<path class="open_een" d="M16,30c-1.103,0-2-0.897-2-2V13.5c0-0.276,0.224-0.5,0.5-0.5s0.5,0.224,0.5,0.5V28c0,0.552,0.448,1,1,1    s1-0.448,1-1V10c0-0.552-0.448-1-1-1s-1,0.448-1,1v0.5c0,0.276-0.224,0.5-0.5,0.5S14,10.776,14,10.5V10c0-1.103,0.897-2,2-2    s2,0.897,2,2v18C18,29.103,17.103,30,16,30z" style="fill: #0B1719;"/>
		<path class="open_een" d="M22,30c-1.103,0-2-0.897-2-2V16.5c0-0.276,0.224-0.5,0.5-0.5s0.5,0.224,0.5,0.5V28c0,0.552,0.448,1,1,1    s1-0.448,1-1V13c0-0.552-0.448-1-1-1s-1,0.448-1,1v0.5c0,0.276-0.224,0.5-0.5,0.5S20,13.776,20,13.5V13c0-1.103,0.897-2,2-2    s2,0.897,2,2v15C24,29.103,23.103,30,22,30z" style="fill: #0B1719;"/>
		<path class="open_een" d="M28,30c-1.103,0-2-0.897-2-2V7.5C26,7.224,26.224,7,26.5,7S27,7.224,27,7.5V28c0,0.552,0.448,1,1,1    s1-0.448,1-1V4c0-0.552-0.448-1-1-1s-1,0.448-1,1v0.5C27,4.776,26.776,5,26.5,5S26,4.776,26,4.5V4c0-1.103,0.897-2,2-2    s2,0.897,2,2v24C30,29.103,29.103,30,28,30z" style="fill: #0B1719;"/>
	</g>
	<g>
		<path class="open_een" d="M4,30c-1.103,0-2-0.897-2-2v-1.5C2,26.224,2.224,26,2.5,26S3,26.224,3,26.5V28c0,0.552,0.448,1,1,1    s1-0.448,1-1v-5c0-0.552-0.448-1-1-1s-1,0.448-1,1v0.5C3,23.776,2.776,24,2.5,24S2,23.776,2,23.5V23c0-1.103,0.897-2,2-2    s2,0.897,2,2v5C6,29.103,5.103,30,4,30z" style="fill: #0B1719;"/>
		<path class="open_een" d="M10,30c-1.103,0-2-0.897-2-2v-5.5C8,22.224,8.224,22,8.5,22S9,22.224,9,22.5V28c0,0.552,0.448,1,1,1    s1-0.448,1-1v-9c0-0.552-0.448-1-1-1s-1,0.448-1,1v0.5C9,19.776,8.776,20,8.5,20S8,19.776,8,19.5V19c0-1.103,0.897-2,2-2    s2,0.897,2,2v9C12,29.103,11.103,30,10,30z" style="fill: #0B1719;"/>
		<path class="open_een" d="M16,30c-1.103,0-2-0.897-2-2V13.5c0-0.276,0.224-0.5,0.5-0.5s0.5,0.224,0.5,0.5V28c0,0.552,0.448,1,1,1    s1-0.448,1-1V10c0-0.552-0.448-1-1-1s-1,0.448-1,1v0.5c0,0.276-0.224,0.5-0.5,0.5S14,10.776,14,10.5V10c0-1.103,0.897-2,2-2    s2,0.897,2,2v18C18,29.103,17.103,30,16,30z" style="fill: #0B1719;"/>
		<path class="open_een" d="M22,30c-1.103,0-2-0.897-2-2V16.5c0-0.276,0.224-0.5,0.5-0.5s0.5,0.224,0.5,0.5V28c0,0.552,0.448,1,1,1    s1-0.448,1-1V13c0-0.552-0.448-1-1-1s-1,0.448-1,1v0.5c0,0.276-0.224,0.5-0.5,0.5S20,13.776,20,13.5V13c0-1.103,0.897-2,2-2    s2,0.897,2,2v15C24,29.103,23.103,30,22,30z" style="fill: #0B1719;"/>
		<path class="open_een" d="M28,30c-1.103,0-2-0.897-2-2V7.5C26,7.224,26.224,7,26.5,7S27,7.224,27,7.5V28c0,0.552,0.448,1,1,1    s1-0.448,1-1V4c0-0.552-0.448-1-1-1s-1,0.448-1,1v0.5C27,4.776,26.776,5,26.5,5S26,4.776,26,4.5V4c0-1.103,0.897-2,2-2    s2,0.897,2,2v24C30,29.103,29.103,30,28,30z" style="fill: #0B1719;"/>
	</g>
</g>
<metadata><work rdf:about=""><format>image/svg+xml</format><type rdf:resource="http://purl.org/dc/dcmitype/StillImage"/><license rdf:resource="http://creativecommons.org/licenses/by/4.0/"/><attributionname>Ariane Garoff</attributionname><attributionurl>http://www.toicon.com/icons/open_chart</attributionurl></work></metadata></svg>
