<?xml version="1.0" encoding="utf-8"?>
<!-- Generator: Adobe Illustrator 19.1.1, SVG Export Plug-In . SVG Version: 6.00 Build 0)  -->
<svg version="1.1"  xmlns="http://www.w3.org/2000/svg" xmlns:xlink="http://www.w3.org/1999/xlink" x="0px" y="0px"
	 viewBox="0 0 48 48" enable-background="new 0 0 48 48" xml:space="preserve">
<path fill="#3F51B5" d="M42,37c0,2.8-2.2,5-5,5H11c-2.8,0-5-2.2-5-5V11c0-2.8,2.2-5,5-5h26c2.8,0,5,2.2,5,5V37z"/>
<g>
	<path fill="#FFD600" d="M28,27h-5c0,4,2,4.5,4.6,4.5c1,0,2-0.2,2.8-0.5l0.5,3.6c-1.2,0.3-2.5,0.4-3.8,0.4c-2.6,0-4.7-0.7-6.2-2.1
		c-1.5-1.4-1.9-3.4-1.9-5.9h-3v-2h3v-2h-3v-2h3c0.2-2.5,0.6-4.6,2.2-5.9c1.6-1.4,3.7-2.1,6.3-2.1c1,0,2.2,0.2,3.5,0.5L30.5,17
		c-0.9-0.3-1.9-0.5-2.8-0.5c-2.8,0-4.7,1.4-4.6,4.4H28v2h-5v2h5V27z"/>
</g>
</svg>
