<?xml version="1.0"?>
<svg xmlns="http://www.w3.org/2000/svg" viewBox="0 0 64 64">
    <path d="M 3 10 C 1.3 10 0 11.3 0 13 L 0 41 C 0 42.7 1.3 44 3 44 L 4 44 L 4 45 C 4 46.7 5.3 48 7 48 L 8 48 L 8 49 C 8 50.7 9.3 52 11 52 L 61 52 C 62.7 52 64 50.7 64 49 L 64 21 C 64 19.3 62.7 18 61 18 L 60 18 L 60 17 C 60 15.3 58.7 14 57 14 L 56 14 L 56 13 C 56 11.3 54.7 10 53 10 L 3 10 z M 3 12 L 53 12 C 53.6 12 54 12.4 54 13 L 54 41 C 54 41.6 53.6 42 53 42 L 3 42 C 2.4 42 2 41.6 2 41 L 2 13 C 2 12.4 2.4 12 3 12 z M 15 14 C 14.4 14 14 14.4 14 15 L 14 17 C 14 17.6 14.4 18 15 18 C 15.6 18 16 17.6 16 17 L 16 15 C 16 14.4 15.6 14 15 14 z M 20 14 C 19.4 14 19 14.4 19 15 L 19 17 C 19 17.6 19.4 18 20 18 C 20.6 18 21 17.6 21 17 L 21 15 C 21 14.4 20.6 14 20 14 z M 25 14 C 24.4 14 24 14.4 24 15 L 24 17 L 24 17.099609 C 21 18.899609 19 22.6 19 27 C 19 31.4 21.1 35.100391 24 36.900391 L 24 37 L 24 39 C 24 39.6 24.4 40 25 40 C 25.6 40 26 39.6 26 39 L 26 37.699219 C 26.6 37.899219 27.3 38 28 38 C 28.7 38 29.4 37.899219 30 37.699219 L 30 39 C 30 39.6 30.4 40 31 40 C 31.6 40 32 39.6 32 39 L 32 37 L 32 36.900391 C 35 35.100391 37 31.4 37 27 C 37 22.6 34.9 18.899609 32 17.099609 L 32 17 L 32 15 C 32 14.4 31.6 14 31 14 C 30.4 14 30 14.4 30 15 L 30 16.300781 C 29.4 16.100781 28.7 16 28 16 C 27.3 16 26.6 16.100781 26 16.300781 L 26 15 C 26 14.4 25.6 14 25 14 z M 36 14 C 35.4 14 35 14.4 35 15 L 35 17 C 35 17.6 35.4 18 36 18 C 36.6 18 37 17.6 37 17 L 37 15 C 37 14.4 36.6 14 36 14 z M 41 14 C 40.4 14 40 14.4 40 15 L 40 17 C 40 17.6 40.4 18 41 18 C 41.6 18 42 17.6 42 17 L 42 15 C 42 14.4 41.6 14 41 14 z M 5 15 C 4.4 15 4 15.4 4 16 C 4 16.6 4.4 17 5 17 L 10 17 C 10.6 17 11 16.6 11 16 C 11 15.4 10.6 15 10 15 L 5 15 z M 46 15 C 45.4 15 45 15.4 45 16 C 45 16.6 45.4 17 46 17 L 51 17 C 51.6 17 52 16.6 52 16 C 52 15.4 51.6 15 51 15 L 46 15 z M 56 16 L 57 16 C 57.6 16 58 16.4 58 17 L 58 45 C 58 45.6 57.6 46 57 46 L 7 46 C 6.4 46 6 45.6 6 45 L 6 44 L 53 44 C 54.7 44 56 42.7 56 41 L 56 16 z M 28 17.800781 C 31.9 17.800781 35.099609 21.9 35.099609 27 C 35.099609 32.1 31.9 36.199219 28 36.199219 C 24.1 36.199219 20.900391 32.1 20.900391 27 C 20.900391 21.9 24.1 17.800781 28 17.800781 z M 60 20 L 61 20 C 61.6 20 62 20.4 62 21 L 62 49 C 62 49.6 61.6 50 61 50 L 11 50 C 10.4 50 10 49.6 10 49 L 10 48 L 57 48 C 58.7 48 60 46.7 60 45 L 60 20 z M 10 24 C 7.8 24 6 25.8 6 28 C 6 30.2 7.8 32 10 32 C 12.2 32 14 30.2 14 28 C 14 25.8 12.2 24 10 24 z M 46 24 C 43.8 24 42 25.8 42 28 C 42 30.2 43.8 32 46 32 C 48.2 32 50 30.2 50 28 C 50 25.8 48.2 24 46 24 z M 10 25.800781 C 11.2 25.800781 12.199219 26.8 12.199219 28 C 12.199219 29.2 11.2 30.199219 10 30.199219 C 8.8 30.199219 7.8007813 29.2 7.8007812 28 C 7.8007812 26.8 8.8 25.800781 10 25.800781 z M 46 25.800781 C 47.2 25.800781 48.199219 26.8 48.199219 28 C 48.199219 29.2 47.2 30.199219 46 30.199219 C 44.8 30.199219 43.800781 29.2 43.800781 28 C 43.800781 26.8 44.8 25.800781 46 25.800781 z M 15 36 C 14.4 36 14 36.4 14 37 L 14 39 C 14 39.6 14.4 40 15 40 C 15.6 40 16 39.6 16 39 L 16 37 C 16 36.4 15.6 36 15 36 z M 20 36 C 19.4 36 19 36.4 19 37 L 19 39 C 19 39.6 19.4 40 20 40 C 20.6 40 21 39.6 21 39 L 21 37 C 21 36.4 20.6 36 20 36 z M 36 36 C 35.4 36 35 36.4 35 37 L 35 39 C 35 39.6 35.4 40 36 40 C 36.6 40 37 39.6 37 39 L 37 37 C 37 36.4 36.6 36 36 36 z M 41 36 C 40.4 36 40 36.4 40 37 L 40 39 C 40 39.6 40.4 40 41 40 C 41.6 40 42 39.6 42 39 L 42 37 C 42 36.4 41.6 36 41 36 z M 5 37 C 4.4 37 4 37.4 4 38 C 4 38.6 4.4 39 5 39 L 10 39 C 10.6 39 11 38.6 11 38 C 11 37.4 10.6 37 10 37 L 5 37 z M 46 37 C 45.4 37 45 37.4 45 38 C 45 38.6 45.4 39 46 39 L 51 39 C 51.6 39 52 38.6 52 38 C 52 37.4 51.6 37 51 37 L 46 37 z"/>
</svg>
